<?xml version="1.0" encoding="utf-8"?>
<!-- Generator: Adobe Illustrator 23.0.1, SVG Export Plug-In . SVG Version: 6.00 Build 0)  -->
<svg version="1.1" id="Layer_1" xmlns="http://www.w3.org/2000/svg" xmlns:xlink="http://www.w3.org/1999/xlink" x="0px" y="0px"
	 viewBox="0 0 125 27" style="enable-background:new 0 0 125 27;" xml:space="preserve">
<style type="text/css">
	.st0{fill:#766DF4;}
</style>
<g>
	<path class="st0" d="M11.39,4.22c1.3,0,2.06,0.37,2.88,1.91l6.76,12.69c0.2,0.35,0.13,0.58-0.3,0.58h-3.3
		c-0.3,0-0.43-0.09-0.56-0.3l-1.32-2.54H6.14l-1.3,2.54c-0.11,0.22-0.26,0.3-0.56,0.3H0.89c-0.41,0-0.48-0.24-0.3-0.58L7.25,6.13
		c0.8-1.54,1.6-1.91,2.62-1.91H11.39z M7.66,13.59h6.35l-2.91-5.57c-0.06-0.11-0.13-0.15-0.24-0.15h-0.11
		c-0.11,0-0.17,0.04-0.26,0.15L7.66,13.59z"/>
	<path d="M25.82,3.14c0.39,0,0.59,0.2,0.59,0.56v15.13c0,0.37-0.19,0.56-0.59,0.56h-2.52c-0.39,0-0.56-0.2-0.56-0.56V3.7
		c0-0.37,0.17-0.56,0.56-0.56H25.82z"/>
	<path d="M40.33,7.34c3.95,0,5.2,1.26,5.2,4.45v3.17c0,3.19-1.26,4.45-5.2,4.45h-7.7v4.23c0,0.37-0.19,0.56-0.56,0.56h-2.54
		c-0.37,0-0.56-0.2-0.56-0.56V11.79c0-3.19,1.28-4.45,5.23-4.45H40.33z M32.63,16.32h7.33c1.56,0,1.91-0.43,1.91-2.08V12.5
		c0-1.65-0.35-2.1-1.91-2.1h-5.4c-1.56,0-1.93,0.46-1.93,2.1V16.32z"/>
	<path d="M51.08,3.14c0.39,0,0.59,0.2,0.59,0.56v3.64h7.68c3.95,0,5.2,1.26,5.2,4.45v7.05c0,0.37-0.2,0.56-0.56,0.56h-2.54
		c-0.37,0-0.56-0.2-0.56-0.56v-6.16c0-1.63-0.2-2.08-1.76-2.08h-7.46v8.24c0,0.37-0.19,0.56-0.59,0.56h-2.52
		c-0.39,0-0.56-0.2-0.56-0.56V3.7c0-0.37,0.17-0.56,0.56-0.56H51.08z"/>
	<path d="M76.83,7.34c3.95,0,5.23,1.26,5.23,4.45v5.85c0,1.43-0.35,1.76-1.6,1.76H70.02c-2.6,0-3.4-0.93-3.4-3.12v-1.13
		c0-1.82,0.8-2.86,3.4-2.86h8.37v-0.35c0-1.11-0.37-1.54-1.93-1.54h-9.02c-0.3,0-0.46-0.15-0.46-0.46V7.8c0-0.3,0.15-0.46,0.46-0.46
		H76.83z M78.39,15.97v-1.43h-7.31c-0.63,0-0.87,0.28-0.87,0.8v0.41c0,0.56,0.24,0.82,0.87,0.82h6.76
		C78.24,16.58,78.39,16.41,78.39,15.97z"/>
	<path d="M98.01,4.22c0.39,0,0.56,0.19,0.56,0.56v8.89c0,4.16-1.69,5.72-6.14,5.72h-8.48c-0.39,0-0.56-0.2-0.56-0.56V16.3
		c0-0.37,0.17-0.56,0.56-0.56h8.33c1.89,0,2.36-0.5,2.36-2.45v-8.5c0-0.37,0.17-0.56,0.56-0.56H98.01z"/>
	<path d="M104.34,2.81c0.37,0,0.56,0.2,0.56,0.56V5.5c0,0.39-0.2,0.56-0.56,0.56h-2.54c-0.37,0-0.56-0.17-0.56-0.56V3.37
		c0-0.37,0.2-0.56,0.56-0.56H104.34z M104.32,7.34c0.39,0,0.59,0.17,0.59,0.56v10.93c0,0.37-0.2,0.56-0.59,0.56h-2.51
		c-0.39,0-0.56-0.2-0.56-0.56V7.91c0-0.39,0.17-0.56,0.56-0.56H104.32z"/>
	<path d="M118.76,7.34c0.3,0,0.46,0.15,0.46,0.46v2.15c0,0.3-0.15,0.46-0.46,0.46h-5.7c-1.56,0-1.93,0.46-1.93,2.1v6.33
		c0,0.37-0.2,0.56-0.56,0.56h-2.54c-0.37,0-0.56-0.2-0.56-0.56v-7.05c0-3.19,1.28-4.45,5.23-4.45H118.76z"/>
	<path d="M123.93,2.81c0.37,0,0.56,0.2,0.56,0.56V5.5c0,0.39-0.2,0.56-0.56,0.56h-2.54c-0.37,0-0.56-0.17-0.56-0.56V3.37
		c0-0.37,0.2-0.56,0.56-0.56H123.93z M123.91,7.34c0.39,0,0.59,0.17,0.59,0.56v10.93c0,0.37-0.2,0.56-0.59,0.56h-2.51
		c-0.39,0-0.56-0.2-0.56-0.56V7.91c0-0.39,0.17-0.56,0.56-0.56H123.91z"/>
</g>
</svg>
