<?xml version="1.0" encoding="utf-8"?>
<!-- Generator: Adobe Illustrator 23.0.1, SVG Export Plug-In . SVG Version: 6.00 Build 0)  -->
<svg version="1.1" id="Layer_1" xmlns="http://www.w3.org/2000/svg" xmlns:xlink="http://www.w3.org/1999/xlink" x="0px" y="0px"
	 viewBox="0 0 21.83 30.05" style="enable-background:new 0 0 21.83 30.05;" xml:space="preserve">
<style type="text/css">
	.st0{fill:#FFFFFF;}
</style>
<path class="st0" d="M10.65,15.92c0.01-0.1,0.03-0.21,0.04-0.31c0.32-0.28,0.63-0.57,0.95-0.84c0.84-0.7,3.75-3.54,5.02-3.44
	c3.21,0.26,3.19-4.74,0-5c-1.28-0.1-2.62,0.53-3.85,1.34c0.18-0.37,0.37-0.74,0.58-1.09c1.62-2.79-2.7-5.31-4.32-2.52
	c-1.57,2.7-2.38,5.76-2.91,8.91c-0.88,0.8-1.76,1.61-2.62,2.43c-1.81,1.71-0.15,4.14,1.8,4.2c-0.16,1.52-0.32,3.03-0.54,4.48
	c-0.47,3.15,4.35,4.51,4.82,1.33c0.16-1.06,0.28-2.16,0.39-3.29c0.1,0.09,0.21,0.18,0.31,0.27c1.43,1.26,2.82,2.56,4.27,3.8
	c2.44,2.08,5.99-1.44,3.54-3.54C16.38,21.14,13.58,17.9,10.65,15.92z"/>
</svg>
